
        <svg width="800" height="120" viewBox="0 0 800 120" xmlns="http://www.w3.org/2000/svg">
            <style>
                .icon-pulse { animation: pulse 2s ease-in-out infinite; }
                .icon-float { animation: float 3s ease-in-out infinite; }
                .icon-spin { animation: spin 4s linear infinite; }
                .icon-glow { animation: glow 2s ease-in-out infinite; }

                @keyframes pulse { 0%, 100% { transform: scale(1); } 50% { transform: scale(1.15); } }
                @keyframes float { 0%, 100% { transform: translateY(0); } 50% { transform: translateY(-5px); } }
                @keyframes spin { from { transform: rotate(0deg); } to { transform: rotate(360deg); } }
                @keyframes glow { 0%, 100% { filter: brightness(1); } 50% { filter: brightness(1.6) drop-shadow(0 0 3px white); } }
                
                svg { font-family: -apple-system, BlinkMacSystemFont, 'Segoe UI', Helvetica, Arial, sans-serif; }
            </style>
            
            <g transform="translate(7.5, 10)">
                <rect width="185" height="100" rx="15" fill="#161b22" stroke="#8b5cf6" stroke-width="1" stroke-opacity="0.2" />
                <rect width="185" height="100" rx="15" fill="url(#grad-0)" opacity="0.1" />
                
                <g class="icon-pulse" style="transform-origin: 92.5px 35px;">
                    <path d="M10.5 7.75a2.5 2.5 0 1 1-5 0 2.5 2.5 0 0 1 5 0zm1.43.75a4.002 4.002 0 0 1-7.86 0H.75a.75.75 0 1 1 0-1.5h3.32a4.001 4.001 0 0 1 7.86 0h3.32a.75.75 0 1 1 0 1.5h-3.32z" fill="#8b5cf6" transform="translate(78.1, 20.6) scale(1.8)" filter="url(#glow-0)" />
                </g>
                
                <text x="92.5" y="75" text-anchor="middle" fill="#e6edf3" font-size="22" font-weight="bold" font-family="'Courier New', Courier, monospace">
                    138
                </text>
                
                <text x="92.5" y="92" text-anchor="middle" fill="#6e7681" font-size="10" font-family="'Courier New', Courier, monospace" letter-spacing="2" font-weight="bold">
                    COMMITS
                </text>

                <defs>
                    <linearGradient id="grad-0" x1="0%" y1="0%" x2="0%" y2="100%">
                        <stop offset="0%" stop-color="#8b5cf6" stop-opacity="0.5" />
                        <stop offset="100%" stop-color="#0d1117" stop-opacity="0" />
                    </linearGradient>
                    <filter id="glow-0">
                        <feGaussianBlur stdDeviation="1.5" result="blur" />
                        <feMerge>
                            <feMergeNode in="blur" />
                            <feMergeNode in="SourceGraphic" />
                        </feMerge>
                    </filter>
                </defs>
            </g>
        
            <g transform="translate(207.5, 10)">
                <rect width="185" height="100" rx="15" fill="#161b22" stroke="#6d28d9" stroke-width="1" stroke-opacity="0.2" />
                <rect width="185" height="100" rx="15" fill="url(#grad-1)" opacity="0.1" />
                
                <g class="icon-float" style="transform-origin: 92.5px 35px;">
                    <path d="M7.177 3.073L9.573.677A.25.25 0 0 1 10 .854v4.792a.25.25 0 0 1-.427.177L7.177 3.427a.25.25 0 0 1 0-.354zM3.75 2.5a.75.75 0 1 0 0 1.5.75.75 0 0 0 0-1.5zm-2.25.75a2.25 2.25 0 1 1 4.5 0 2.25 2.25 0 0 1-4.5 0zm2.25 7.5a.75.75 0 1 0 0 1.5.75.75 0 0 0 0-1.5zM1.5 10.75a2.25 2.25 0 1 1 4.5 0 2.25 2.25 0 0 1-4.5 0zm11.25-5.25a.75.75 0 1 0 0 1.5.75.75 0 0 0 0-1.5z" fill="#6d28d9" transform="translate(78.1, 20.6) scale(1.8)" filter="url(#glow-1)" />
                </g>
                
                <text x="92.5" y="75" text-anchor="middle" fill="#e6edf3" font-size="22" font-weight="bold" font-family="'Courier New', Courier, monospace">
                    0
                </text>
                
                <text x="92.5" y="92" text-anchor="middle" fill="#6e7681" font-size="10" font-family="'Courier New', Courier, monospace" letter-spacing="2" font-weight="bold">
                    PRS
                </text>

                <defs>
                    <linearGradient id="grad-1" x1="0%" y1="0%" x2="0%" y2="100%">
                        <stop offset="0%" stop-color="#6d28d9" stop-opacity="0.5" />
                        <stop offset="100%" stop-color="#0d1117" stop-opacity="0" />
                    </linearGradient>
                    <filter id="glow-1">
                        <feGaussianBlur stdDeviation="1.5" result="blur" />
                        <feMerge>
                            <feMergeNode in="blur" />
                            <feMergeNode in="SourceGraphic" />
                        </feMerge>
                    </filter>
                </defs>
            </g>
        
            <g transform="translate(407.5, 10)">
                <rect width="185" height="100" rx="15" fill="#161b22" stroke="#ff3366" stroke-width="1" stroke-opacity="0.2" />
                <rect width="185" height="100" rx="15" fill="url(#grad-2)" opacity="0.1" />
                
                <g class="icon-spin" style="transform-origin: 92.5px 35px;">
                    <path d="M8 9.5a1.5 1.5 0 1 0 0-3 1.5 1.5 0 0 0 0 3zM8 0a8 8 0 1 0 0 16A8 8 0 0 0 8 0zM1.5 8a6.5 6.5 0 1 1 13 0 6.5 6.5 0 0 1-13 0z" fill="#ff3366" transform="translate(78.1, 20.6) scale(1.8)" filter="url(#glow-2)" />
                </g>
                
                <text x="92.5" y="75" text-anchor="middle" fill="#e6edf3" font-size="22" font-weight="bold" font-family="'Courier New', Courier, monospace">
                    0
                </text>
                
                <text x="92.5" y="92" text-anchor="middle" fill="#6e7681" font-size="10" font-family="'Courier New', Courier, monospace" letter-spacing="2" font-weight="bold">
                    ISSUES
                </text>

                <defs>
                    <linearGradient id="grad-2" x1="0%" y1="0%" x2="0%" y2="100%">
                        <stop offset="0%" stop-color="#ff3366" stop-opacity="0.5" />
                        <stop offset="100%" stop-color="#0d1117" stop-opacity="0" />
                    </linearGradient>
                    <filter id="glow-2">
                        <feGaussianBlur stdDeviation="1.5" result="blur" />
                        <feMerge>
                            <feMergeNode in="blur" />
                            <feMergeNode in="SourceGraphic" />
                        </feMerge>
                    </filter>
                </defs>
            </g>
        
            <g transform="translate(607.5, 10)">
                <rect width="185" height="100" rx="15" fill="#161b22" stroke="#00d4ff" stroke-width="1" stroke-opacity="0.2" />
                <rect width="185" height="100" rx="15" fill="url(#grad-3)" opacity="0.1" />
                
                <g class="icon-glow" style="transform-origin: 92.5px 35px;">
                    <path d="M8 .25a.75.75 0 0 1 .673.418l1.882 3.815 4.21.612a.75.75 0 0 1 .416 1.279l-3.046 2.97.719 4.192a.75.75 0 0 1-1.088.791L8 12.347l-3.766 1.98a.75.75 0 0 1-1.088-.79l.72-4.194L.818 6.374a.75.75 0 0 1 .416-1.28l4.21-.611L7.327.668A.75.75 0 0 1 8 .25z" fill="#00d4ff" transform="translate(78.1, 20.6) scale(1.8)" filter="url(#glow-3)" />
                </g>
                
                <text x="92.5" y="75" text-anchor="middle" fill="#e6edf3" font-size="22" font-weight="bold" font-family="'Courier New', Courier, monospace">
                    22
                </text>
                
                <text x="92.5" y="92" text-anchor="middle" fill="#6e7681" font-size="10" font-family="'Courier New', Courier, monospace" letter-spacing="2" font-weight="bold">
                    STARS
                </text>

                <defs>
                    <linearGradient id="grad-3" x1="0%" y1="0%" x2="0%" y2="100%">
                        <stop offset="0%" stop-color="#00d4ff" stop-opacity="0.5" />
                        <stop offset="100%" stop-color="#0d1117" stop-opacity="0" />
                    </linearGradient>
                    <filter id="glow-3">
                        <feGaussianBlur stdDeviation="1.5" result="blur" />
                        <feMerge>
                            <feMergeNode in="blur" />
                            <feMergeNode in="SourceGraphic" />
                        </feMerge>
                    </filter>
                </defs>
            </g>
        
        </svg>
    