
        <svg width="800" height="100" viewBox="0 0 800 100" xmlns="http://www.w3.org/2000/svg">
            <rect width="100%" height="100%" fill="none" />
            
            <g transform="translate(0, 0)">
                <rect x="10" y="10" width="180" height="80" rx="8" fill="#161b22" stroke="#30363d" stroke-width="1" opacity="0.6" />
                
                <g transform="translate(50, 50)">
                    <path d="M8 .25a.75.75 0 0 1 .673.418l1.882 3.815 4.21.612a.75.75 0 0 1 .416 1.279l-3.046 2.97.719 4.192a.75.75 0 0 1-1.088.791L8 12.347l-3.766 1.98a.75.75 0 0 1-1.088-.79l.72-4.194L.818 6.374a.75.75 0 0 1 .416-1.28l4.21-.611L7.327.668A.75.75 0 0 1 8 .25z" fill="#00d4ff" transform="scale(1.5) translate(-8, -8)" />
                </g>
                
                <text x="110" y="45" text-anchor="start" fill="#e6edf3" font-size="24" font-weight="bold" font-family="-apple-system, BlinkMacSystemFont, 'Segoe UI', Helvetica, Arial, sans-serif">
                    22
                </text>
                
                <text x="110" y="65" text-anchor="start" fill="#6e7681" font-size="12" font-family="-apple-system, BlinkMacSystemFont, 'Segoe UI', Helvetica, Arial, sans-serif" letter-spacing="1">
                    STARS
                </text>
            </g>
        
            <g transform="translate(200, 0)">
                <rect x="10" y="10" width="180" height="80" rx="8" fill="#161b22" stroke="#30363d" stroke-width="1" opacity="0.6" />
                
                <g transform="translate(50, 50)">
                    <path d="M10.5 7.75a2.5 2.5 0 1 1-5 0 2.5 2.5 0 0 1 5 0zm1.43.75a4.002 4.002 0 0 1-7.86 0H.75a.75.75 0 1 1 0-1.5h3.32a4.001 4.001 0 0 1 7.86 0h3.32a.75.75 0 1 1 0 1.5h-3.32z" fill="#8b5cf6" transform="scale(1.5) translate(-8, -8)" />
                </g>
                
                <text x="310" y="45" text-anchor="start" fill="#e6edf3" font-size="24" font-weight="bold" font-family="-apple-system, BlinkMacSystemFont, 'Segoe UI', Helvetica, Arial, sans-serif">
                    133
                </text>
                
                <text x="310" y="65" text-anchor="start" fill="#6e7681" font-size="12" font-family="-apple-system, BlinkMacSystemFont, 'Segoe UI', Helvetica, Arial, sans-serif" letter-spacing="1">
                    COMMITS
                </text>
            </g>
        
            <g transform="translate(400, 0)">
                <rect x="10" y="10" width="180" height="80" rx="8" fill="#161b22" stroke="#30363d" stroke-width="1" opacity="0.6" />
                
                <g transform="translate(50, 50)">
                    <path d="M7.177 3.073L9.573.677A.25.25 0 0 1 10 .854v4.792a.25.25 0 0 1-.427.177L7.177 3.427a.25.25 0 0 1 0-.354zM3.75 2.5a.75.75 0 1 0 0 1.5.75.75 0 0 0 0-1.5zm-2.25.75a2.25 2.25 0 1 1 4.5 0 2.25 2.25 0 0 1-4.5 0zm2.25 7.5a.75.75 0 1 0 0 1.5.75.75 0 0 0 0-1.5zM1.5 10.75a2.25 2.25 0 1 1 4.5 0 2.25 2.25 0 0 1-4.5 0zm11.25-5.25a.75.75 0 1 0 0 1.5.75.75 0 0 0 0-1.5zM10.5 6.25a2.25 2.25 0 1 1 4.5 0 2.25 2.25 0 0 1-4.5 0z" fill="#6d28d9" transform="scale(1.5) translate(-8, -8)" />
                </g>
                
                <text x="510" y="45" text-anchor="start" fill="#e6edf3" font-size="24" font-weight="bold" font-family="-apple-system, BlinkMacSystemFont, 'Segoe UI', Helvetica, Arial, sans-serif">
                    0
                </text>
                
                <text x="510" y="65" text-anchor="start" fill="#6e7681" font-size="12" font-family="-apple-system, BlinkMacSystemFont, 'Segoe UI', Helvetica, Arial, sans-serif" letter-spacing="1">
                    PRS
                </text>
            </g>
        
            <g transform="translate(600, 0)">
                <rect x="10" y="10" width="180" height="80" rx="8" fill="#161b22" stroke="#30363d" stroke-width="1" opacity="0.6" />
                
                <g transform="translate(50, 50)">
                    <path d="M8 9.5a1.5 1.5 0 1 0 0-3 1.5 1.5 0 0 0 0 3zM8 0a8 8 0 1 0 0 16A8 8 0 0 0 8 0zM1.5 8a6.5 6.5 0 1 1 13 0 6.5 6.5 0 0 1-13 0z" fill="#ff3366" transform="scale(1.5) translate(-8, -8)" />
                </g>
                
                <text x="710" y="45" text-anchor="start" fill="#e6edf3" font-size="24" font-weight="bold" font-family="-apple-system, BlinkMacSystemFont, 'Segoe UI', Helvetica, Arial, sans-serif">
                    0
                </text>
                
                <text x="710" y="65" text-anchor="start" fill="#6e7681" font-size="12" font-family="-apple-system, BlinkMacSystemFont, 'Segoe UI', Helvetica, Arial, sans-serif" letter-spacing="1">
                    ISSUES
                </text>
            </g>
        
        </svg>
    